<svg id="Layer_1" data-name="Layer 1" xmlns="http://www.w3.org/2000/svg" viewBox="0 0 357.07 227.37"><defs><style>.cls-1{fill:#333;}.cls-2{fill:#c69c6d;}.cls-3{opacity:0.29;}.cls-4{fill:#fbb03b;}.cls-5{fill:#0071bc;}.cls-6{fill:#29abe2;}.cls-7{fill:#ed1c24;}.cls-8{fill:#c1272d;}.cls-9{fill:#f15a24;}.cls-10{fill:#f7931e;}.cls-11{fill:red;}.cls-12{opacity:0.28;}.cls-13{fill:#4d4d4d;}.cls-14{fill:gray;}.cls-15{fill:#2e3192;}.cls-16{fill:#a67c52;}.cls-17{fill:#1a1a1a;}.cls-18{fill:#fff;}</style></defs><title>cartoon of me</title><path class="cls-1" d="M221.77,316.76h0a10.08,10.08,0,0,1,10.08,10.08v54.55a2.48,2.48,0,0,1-2.48,2.48h-15.2a2.48,2.48,0,0,1-2.48-2.48V326.84A10.08,10.08,0,0,1,221.77,316.76Z" transform="translate(-240.32 -152.16) rotate(-20.34)"/><path class="cls-2" d="M236.4,377h0A10.08,10.08,0,0,1,246.48,387v15.61a0,0,0,0,1,0,0H226.32a0,0,0,0,1,0,0V387A10.08,10.08,0,0,1,236.4,377Z" transform="translate(461.15 422.07) rotate(159.66)"/><rect class="cls-1" x="219.48" y="372.36" width="23.3" height="5.98" transform="translate(-248.43 -147.35) rotate(-20.34)"/><rect class="cls-2" x="229.63" y="391.18" width="3.86" height="18.01" rx="1.93" ry="1.93" transform="translate(-257.04 -145.65) rotate(-20.34)"/><rect class="cls-2" x="234.4" y="389.32" width="4.33" height="18.01" rx="2.16" ry="2.16" transform="translate(-256.08 -144.02) rotate(-20.34)"/><rect class="cls-2" x="239.52" y="387.46" width="4.14" height="18.01" rx="2.07" ry="2.07" transform="translate(-255.12 -142.39) rotate(-20.34)"/><rect class="cls-2" x="244.77" y="385.55" width="3.96" height="18.01" rx="1.98" ry="1.98" transform="translate(-254.13 -140.72) rotate(-20.34)"/><rect class="cls-3" x="222.4" y="378.05" width="20.16" height="2.32" transform="translate(-249.69 -146.64) rotate(-20.34)"/><path class="cls-4" d="M237.5,380.75h0a2.61,2.61,0,0,0,1,2.91l10.32,6.87a1.46,1.46,0,0,0,2.3-.73h0a2.61,2.61,0,0,0-1-2.91L239.8,380A1.46,1.46,0,0,0,237.5,380.75Z" transform="translate(-132.39 -251.07)"/><path class="cls-1" d="M349.46,315.68h0a10.08,10.08,0,0,1,10.08,10.08v54.55a2.48,2.48,0,0,1-2.48,2.48h-15.2a2.48,2.48,0,0,1-2.48-2.48V325.76A10.08,10.08,0,0,1,349.46,315.68Z" transform="matrix(1, -0.05, 0.05, 1, -150.57, -231.88)"/><path class="cls-2" d="M351.71,378.44h0a10.08,10.08,0,0,1,10.08,10.08v15.61a0,0,0,0,1,0,0H341.63a0,0,0,0,1,0,0V388.52a10.08,10.08,0,0,1,10.08-10.08Z" transform="translate(591.46 512.12) rotate(176.93)"/><rect class="cls-1" x="339.31" y="372.93" width="23.3" height="5.98" transform="translate(-152 -231.76) rotate(-3.07)"/><rect class="cls-2" x="342.07" y="390.75" width="3.86" height="18.01" rx="1.93" ry="1.93" transform="translate(-153.29 -232.09) rotate(-3.07)"/><rect class="cls-2" x="347.17" y="390.47" width="4.33" height="18.01" rx="2.16" ry="2.16" transform="translate(-153.26 -231.81) rotate(-3.07)"/><rect class="cls-2" x="352.61" y="390.18" width="4.14" height="18.01" rx="2.07" ry="2.07" transform="translate(-153.24 -231.52) rotate(-3.07)"/><rect class="cls-2" x="358.2" y="389.89" width="3.96" height="18.01" rx="1.98" ry="1.98" transform="translate(-153.22 -231.23) rotate(-3.07)"/><rect class="cls-3" x="341.03" y="378.84" width="20.16" height="2.32" transform="matrix(1, -0.05, 0.05, 1, -152.22, -231.74)"/><path class="cls-4" d="M355.44,383h0a2.61,2.61,0,0,0,.07,3.07l7.81,9.62a1.46,1.46,0,0,0,2.41,0h0a2.61,2.61,0,0,0-.07-3.07L357.85,383A1.46,1.46,0,0,0,355.44,383Z" transform="translate(-132.39 -251.07)"/><rect class="cls-5" x="175.87" y="365.71" width="5.92" height="44.89" rx="2.96" ry="2.96" transform="translate(-45.82 -280.21) rotate(12.27)"/><rect class="cls-5" x="319.58" y="157.33" width="5.92" height="45.45" rx="2.96" ry="2.96"/><rect class="cls-6" x="316.34" y="199.11" width="12.08" height="7.97"/><rect class="cls-2" x="319.58" y="207.08" width="5.92" height="9.44"/><rect class="cls-7" x="318.43" y="215.47" width="7.88" height="1.05"/><rect class="cls-8" x="318.43" y="216.51" width="7.88" height="1.05"/><rect class="cls-9" x="318.43" y="217.56" width="7.88" height="1.05"/><rect class="cls-10" x="318.43" y="218.61" width="7.88" height="1.05"/><rect class="cls-11" x="318.43" y="219.66" width="7.88" height="1.05"/><path class="cls-9" d="M456.58,469.3c-4.81,0-8.7,4.7-8.7,8.7h17.4C465.28,474,461.39,469.3,456.58,469.3Z" transform="translate(-132.39 -251.07)"/><rect class="cls-9" x="322.21" y="212.94" width="5.33" height="11.27" rx="2.66" ry="2.66"/><path class="cls-10" d="M463.45,467.56C457.69,467.56,453,473,453,478h20.88C473.89,473,469.22,467.56,463.45,467.56Z" transform="translate(-132.39 -251.07)"/><rect class="cls-12" x="319.58" y="207.08" width="5.92" height="0.79"/><rect class="cls-5" x="304.84" y="157.33" width="5.92" height="45.45" rx="2.96" ry="2.96"/><rect class="cls-6" x="301.61" y="199.11" width="12.08" height="7.97"/><rect class="cls-2" x="304.84" y="207.08" width="5.92" height="9.44"/><rect class="cls-7" x="303.7" y="215.47" width="7.88" height="1.05"/><rect class="cls-8" x="303.7" y="216.51" width="7.88" height="1.05"/><rect class="cls-9" x="303.7" y="217.56" width="7.88" height="1.05"/><rect class="cls-10" x="303.7" y="218.61" width="7.88" height="1.05"/><rect class="cls-11" x="303.7" y="219.66" width="7.88" height="1.05"/><path class="cls-9" d="M441.85,469.3c-4.81,0-8.7,4.7-8.7,8.7h17.4C450.55,474,446.66,469.3,441.85,469.3Z" transform="translate(-132.39 -251.07)"/><rect class="cls-9" x="307.48" y="212.94" width="5.33" height="11.27" rx="2.66" ry="2.66"/><path class="cls-8" d="M448.72,467.56c-5.76,0-10.44,5.44-10.44,10.44h20.88C459.16,473,454.49,467.56,448.72,467.56Z" transform="translate(-132.39 -251.07)"/><rect class="cls-12" x="304.84" y="207.08" width="5.92" height="0.79"/><rect class="cls-5" x="298.41" y="77.28" width="30.78" height="41.19" rx="15.39" ry="15.39"/><path class="cls-1" d="M342.75,65.52h0A10.08,10.08,0,0,1,352.83,75.6v54.55a2.48,2.48,0,0,1-2.48,2.48h-15.2a2.48,2.48,0,0,1-2.48-2.48V75.6a10.08,10.08,0,0,1,10.08-10.08Z"/><path class="cls-2" d="M475.14,379.41h0a10.08,10.08,0,0,1,10.08,10.08V405.1a0,0,0,0,1,0,0H465.06a0,0,0,0,1,0,0V389.48A10.08,10.08,0,0,1,475.14,379.41Z" transform="translate(817.89 533.43) rotate(180)"/><rect class="cls-1" x="331.17" y="122.81" width="23.3" height="5.98"/><rect class="cls-2" x="332.67" y="140.23" width="3.86" height="18.01" rx="1.93" ry="1.93"/><rect class="cls-2" x="337.77" y="140.23" width="4.33" height="18.01" rx="2.16" ry="2.16"/><rect class="cls-2" x="343.23" y="140.23" width="4.14" height="18.01" rx="2.07" ry="2.07"/><rect class="cls-2" x="348.82" y="140.23" width="3.96" height="18.01" rx="1.98" ry="1.98"/><rect class="cls-3" x="332.67" y="128.72" width="20.16" height="2.32"/><path class="cls-4" d="M479.31,384.15h0a2.61,2.61,0,0,0-.09,3.07l7.29,10a1.46,1.46,0,0,0,2.41.12h0a2.61,2.61,0,0,0,.09-3.07l-7.29-10A1.46,1.46,0,0,0,479.31,384.15Z" transform="translate(-132.39 -251.07)"/><circle class="cls-13" cx="313.05" cy="85.75" r="29.88"/><path class="cls-14" d="M462.05,322.29V313a5.62,5.62,0,0,0-5.62-5.62H437.81a5.22,5.22,0,0,0-5.22,5.22v7.64L448.36,336Z" transform="translate(-132.39 -251.07)"/><rect class="cls-2" x="300.93" y="11.49" width="30.27" height="51.34" rx="15.13" ry="15.13"/><rect x="316.32" y="25.62" width="6.96" height="1.85"/><path d="M437.58,277a2.87,2.87,0,0,0,0,.69,7.15,7.15,0,0,0,7.21,7.14,7.08,7.08,0,0,0,4-1.08L441.84,277h-4.25Z" transform="translate(-132.39 -251.07)"/><path d="M452,277.69a2.83,2.83,0,0,0,0-.69h-3.46l3.13,3.06A7.69,7.69,0,0,0,452,277.69Z" transform="translate(-132.39 -251.07)"/><path d="M450.24,282.36L444.73,277h-1l6,6C449.92,282.8,450.08,282.55,450.24,282.36Z" transform="translate(-132.39 -251.07)"/><path class="cls-15" d="M451.58,280l-3.13-3h-3.73l5.51,5.44A7.58,7.58,0,0,0,451.58,280Z" transform="translate(-132.39 -251.07)"/><path class="cls-15" d="M441.84,277l6.87,6.72a6.77,6.77,0,0,0,1-.75l-6-6h-1.86Z" transform="translate(-132.39 -251.07)"/><path d="M452.06,277a2.87,2.87,0,0,0,0,.69,7.15,7.15,0,0,0,7.21,7.14,7.08,7.08,0,0,0,4-1.08L456.32,277h-4.25Z" transform="translate(-132.39 -251.07)"/><path d="M466.43,277.69a2.83,2.83,0,0,0,0-.69h-3.46l3.13,3.06A7.69,7.69,0,0,0,466.43,277.69Z" transform="translate(-132.39 -251.07)"/><path d="M464.72,282.36L459.2,277h-1l6,6C464.4,282.8,464.56,282.55,464.72,282.36Z" transform="translate(-132.39 -251.07)"/><path class="cls-15" d="M466.06,280l-3.13-3H459.2l5.51,5.44A7.58,7.58,0,0,0,466.06,280Z" transform="translate(-132.39 -251.07)"/><path class="cls-15" d="M456.32,277l6.87,6.72a6.77,6.77,0,0,0,1-.75l-6-6h-1.86Z" transform="translate(-132.39 -251.07)"/><rect x="298.57" y="25.62" width="6.96" height="1.85"/><rect class="cls-16" x="317.1" y="31.68" width="4.94" height="10.11" rx="2.47" ry="2.47"/><rect class="cls-8" x="309.31" y="22.38" width="8.99" height="2.49" rx="1.24" ry="1.24"/><rect class="cls-8" x="323.28" y="22.38" width="8.19" height="2.49" rx="1.24" ry="1.24"/><path class="cls-13" d="M339.67,0h0a0,0,0,0,1,0,0V0.76a20.42,20.42,0,0,1-20.42,20.42h0a0,0,0,0,1,0,0V20.42A20.42,20.42,0,0,1,339.67,0Z"/><path class="cls-17" d="M326.54,5.68h4.92a0,0,0,0,1,0,0v0A15.5,15.5,0,0,1,316,21.18H311a0,0,0,0,1,0,0v0A15.5,15.5,0,0,1,326.54,5.68Z"/><path class="cls-13" d="M315,8.15h7.86a0,0,0,0,1,0,0v0a13,13,0,0,1-13,13h-7.86a0,0,0,0,1,0,0v0a13,13,0,0,1,13-13Z"/><path class="cls-8" d="M450.6,298.39c5,0,9.13-.39,9.13-1.39H441.47C441.47,298,445.55,298.39,450.6,298.39Z" transform="translate(-132.39 -251.07)"/><rect class="cls-14" x="315.54" y="83.46" width="0.87" height="32.03"/><circle class="cls-18" cx="317.54" cy="87.97" r="0.54"/><circle class="cls-18" cx="317.54" cy="99.92" r="0.54"/><circle class="cls-18" cx="317.54" cy="111.88" r="0.54"/><path class="cls-4" d="M426.42,384.15h0a2.41,2.41,0,0,0-.1,3.07l8.05,10a1.71,1.71,0,0,0,2.66.12h0a2.41,2.41,0,0,0,.1-3.07l-8.05-10A1.71,1.71,0,0,0,426.42,384.15Z" transform="translate(-132.39 -251.07)"/><path class="cls-1" d="M289.42,65.52h0a11.14,11.14,0,0,1,11.14,11.14v53.23a2.74,2.74,0,0,1-2.74,2.74H281a2.74,2.74,0,0,1-2.74-2.74V76.65A11.14,11.14,0,0,1,289.42,65.52Z"/><path class="cls-2" d="M421.81,379.41h0a11.14,11.14,0,0,1,11.14,11.14V405.1a0,0,0,0,1,0,0H410.67a0,0,0,0,1,0,0V390.54A11.14,11.14,0,0,1,421.81,379.41Z" transform="translate(711.23 533.43) rotate(180)"/><rect class="cls-1" x="276.63" y="122.81" width="25.75" height="5.98"/><rect class="cls-2" x="278.28" y="140.23" width="4.27" height="18.01" rx="2.13" ry="2.13"/><rect class="cls-2" x="283.92" y="140.23" width="4.78" height="18.01" rx="2.39" ry="2.39"/><rect class="cls-2" x="289.95" y="140.23" width="4.58" height="18.01" rx="2.29" ry="2.29"/><rect class="cls-2" x="296.13" y="140.23" width="4.38" height="18.01" rx="2.19" ry="2.19"/><rect class="cls-3" x="278.28" y="128.72" width="22.28" height="2.32"/><rect class="cls-5" x="319.58" y="115.11" width="5.92" height="44.89" rx="2.96" ry="2.96"/><rect class="cls-5" x="304.84" y="115.11" width="5.92" height="44.89" rx="2.96" ry="2.96"/><rect class="cls-5" x="207.34" y="407.41" width="5.92" height="45.45" rx="2.96" ry="2.96" transform="translate(-200.51 -210.46) rotate(-9.5)"/><rect class="cls-6" x="207.91" y="448.9" width="12.08" height="7.97" transform="matrix(0.99, -0.17, 0.17, 0.99, -204.21, -209.54)"/><rect class="cls-2" x="212.58" y="456.72" width="5.92" height="9.44" transform="matrix(0.99, -0.17, 0.17, 0.99, -205.6, -209.16)"/><rect class="cls-7" x="212.13" y="465.08" width="7.88" height="1.05" transform="translate(-206.28 -209.02) rotate(-9.5)"/><rect class="cls-8" x="212.31" y="466.11" width="7.88" height="1.05" transform="matrix(0.99, -0.17, 0.17, 0.99, -206.45, -208.98)"/><rect class="cls-9" x="212.48" y="467.14" width="7.88" height="1.05" transform="matrix(0.99, -0.17, 0.17, 0.99, -206.62, -208.93)"/><rect class="cls-10" x="212.65" y="468.18" width="7.88" height="1.05" transform="translate(-206.79 -208.89) rotate(-9.5)"/><rect class="cls-11" x="212.82" y="469.21" width="7.88" height="1.05" transform="translate(-206.95 -208.85) rotate(-9.5)"/><path class="cls-9" d="M218.24,467.51c-4.74.79-7.81,6.07-7.15,10l17.16-2.87C227.59,470.71,223,466.71,218.24,467.51Z" transform="translate(-132.39 -251.07)"/><rect class="cls-9" x="216.3" y="462.1" width="5.33" height="11.27" rx="2.66" ry="2.66" transform="translate(-206.59 -208.51) rotate(-9.5)"/><path class="cls-10" d="M224.73,464.66c-5.69,1-9.4,7.09-8.57,12l20.59-3.45C235.92,468.3,230.41,463.71,224.73,464.66Z" transform="translate(-132.39 -251.07)"/><rect class="cls-12" x="211.87" y="456.78" width="5.92" height="0.79" transform="translate(-204.91 -209.34) rotate(-9.5)"/><rect class="cls-5" x="165.95" y="405.42" width="5.92" height="45.45" rx="2.96" ry="2.96" transform="matrix(0.96, 0.28, -0.28, 0.96, -6.2, -281.2)"/><rect class="cls-6" x="156.29" y="446.23" width="12.08" height="7.97" transform="translate(-0.3 -278.49) rotate(16.2)"/><rect class="cls-2" x="157.1" y="453.9" width="5.92" height="9.44" transform="translate(1.96 -277.52) rotate(16.2)"/><rect class="cls-7" x="154.79" y="462.08" width="7.88" height="1.05" transform="translate(3.01 -276.99) rotate(16.2)"/><rect class="cls-8" x="154.5" y="463.08" width="7.88" height="1.05" transform="translate(3.28 -276.87) rotate(16.2)"/><rect class="cls-9" x="154.21" y="464.09" width="7.88" height="1.05" transform="translate(3.55 -276.75) rotate(16.2)"/><rect class="cls-10" x="153.91" y="465.09" width="7.88" height="1.05" transform="translate(3.82 -276.63) rotate(16.2)"/><rect class="cls-11" x="153.62" y="466.1" width="7.88" height="1.05" transform="translate(4.09 -276.51) rotate(16.2)"/><path class="cls-9" d="M159.85,465.26c-4.61-1.34-9.67,2.09-10.78,5.93L165.78,476C166.9,472.2,164.47,466.6,159.85,465.26Z" transform="translate(-132.39 -251.07)"/><rect class="cls-9" x="157.75" y="460.14" width="5.33" height="11.27" rx="2.66" ry="2.66" transform="translate(3.97 -277.33) rotate(16.2)"/><path class="cls-8" d="M166.94,465.51c-5.54-1.61-11.54,2.31-12.94,7.11l20,5.83C175.44,473.64,172.47,467.11,166.94,465.51Z" transform="translate(-132.39 -251.07)"/><rect class="cls-12" x="158.3" y="454.07" width="5.92" height="0.79" transform="translate(0.84 -278.02) rotate(16.2)"/><rect class="cls-5" x="42.41" y="77.28" width="30.78" height="41.19" rx="15.39" ry="15.39"/><circle class="cls-13" cx="57.05" cy="85.75" r="29.88"/><path class="cls-14" d="M206.05,322.29V313a5.62,5.62,0,0,0-5.62-5.62H181.81a5.22,5.22,0,0,0-5.22,5.22v7.64L192.36,336Z" transform="translate(-132.39 -251.07)"/><rect class="cls-2" x="44.93" y="11.49" width="30.27" height="51.34" rx="15.13" ry="15.13"/><rect x="60.32" y="25.62" width="6.96" height="1.85"/><path d="M181.58,277a2.87,2.87,0,0,0,0,.69,7.15,7.15,0,0,0,7.21,7.14,7.08,7.08,0,0,0,4-1.08L185.84,277h-4.25Z" transform="translate(-132.39 -251.07)"/><path d="M196,277.69a2.83,2.83,0,0,0,0-.69h-3.46l3.13,3.06A7.69,7.69,0,0,0,196,277.69Z" transform="translate(-132.39 -251.07)"/><path d="M194.24,282.36L188.73,277h-1l6,6C193.92,282.8,194.08,282.55,194.24,282.36Z" transform="translate(-132.39 -251.07)"/><path class="cls-15" d="M195.58,280l-3.13-3h-3.73l5.51,5.44A7.58,7.58,0,0,0,195.58,280Z" transform="translate(-132.39 -251.07)"/><path class="cls-15" d="M185.84,277l6.87,6.72a6.77,6.77,0,0,0,1-.75l-6-6h-1.86Z" transform="translate(-132.39 -251.07)"/><path d="M196.06,277a2.87,2.87,0,0,0,0,.69,7.15,7.15,0,0,0,7.21,7.14,7.08,7.08,0,0,0,4-1.08L200.32,277h-4.25Z" transform="translate(-132.39 -251.07)"/><path d="M210.43,277.69a2.83,2.83,0,0,0,0-.69h-3.46l3.13,3.06A7.69,7.69,0,0,0,210.43,277.69Z" transform="translate(-132.39 -251.07)"/><path d="M208.72,282.36L203.2,277h-1l6,6C208.4,282.8,208.56,282.55,208.72,282.36Z" transform="translate(-132.39 -251.07)"/><path class="cls-15" d="M210.06,280l-3.13-3H203.2l5.51,5.44A7.58,7.58,0,0,0,210.06,280Z" transform="translate(-132.39 -251.07)"/><path class="cls-15" d="M200.32,277l6.87,6.72a6.77,6.77,0,0,0,1-.75l-6-6h-1.86Z" transform="translate(-132.39 -251.07)"/><rect x="42.57" y="25.62" width="6.96" height="1.85"/><rect class="cls-16" x="61.1" y="31.68" width="4.94" height="10.11" rx="2.47" ry="2.47"/><rect class="cls-8" x="53.31" y="22.38" width="8.99" height="2.49" rx="1.24" ry="1.24"/><rect class="cls-8" x="67.28" y="22.38" width="8.19" height="2.49" rx="1.24" ry="1.24"/><path class="cls-13" d="M83.67,0h0a0,0,0,0,1,0,0V0.76A20.42,20.42,0,0,1,63.25,21.18h0a0,0,0,0,1,0,0V20.42A20.42,20.42,0,0,1,83.67,0Z"/><path class="cls-17" d="M70.54,5.68h4.92a0,0,0,0,1,0,0v0A15.5,15.5,0,0,1,60,21.18H55a0,0,0,0,1,0,0v0A15.5,15.5,0,0,1,70.54,5.68Z"/><path class="cls-13" d="M59,8.15h7.86a0,0,0,0,1,0,0v0a13,13,0,0,1-13,13H45.92a0,0,0,0,1,0,0v0a13,13,0,0,1,13-13Z"/><path class="cls-8" d="M194.6,298.39c5,0,9.13-.39,9.13-1.39H185.47C185.47,298,189.55,298.39,194.6,298.39Z" transform="translate(-132.39 -251.07)"/><rect class="cls-14" x="59.54" y="83.46" width="0.87" height="32.03"/><circle class="cls-18" cx="61.54" cy="87.97" r="0.54"/><circle class="cls-18" cx="61.54" cy="99.92" r="0.54"/><circle class="cls-18" cx="61.54" cy="111.88" r="0.54"/><path class="cls-4" d="M154.35,384h0a2.41,2.41,0,0,0-1,2.9l4.72,12a1.71,1.71,0,0,0,2.51.9h0a2.41,2.41,0,0,0,1-2.9l-4.72-12A1.71,1.71,0,0,0,154.35,384Z" transform="translate(-132.39 -251.07)"/><path class="cls-1" d="M160,316.58h0a11.14,11.14,0,0,1,11.14,11.14v53.23a2.74,2.74,0,0,1-2.74,2.74h-16.8a2.74,2.74,0,0,1-2.74-2.74V327.72A11.14,11.14,0,0,1,160,316.58Z" transform="translate(-21.38 -282.78) rotate(17.25)"/><path class="cls-2" d="M147.55,377.51h0a11.14,11.14,0,0,1,11.14,11.14V403.2a0,0,0,0,1,0,0H136.41a0,0,0,0,1,0,0V388.64A11.14,11.14,0,0,1,147.55,377.51Z" transform="translate(40.33 555.83) rotate(-162.75)"/><rect class="cls-1" x="139.31" y="372.7" width="25.75" height="5.98" transform="translate(-14.15 -279.3) rotate(17.25)"/><rect class="cls-2" x="134.43" y="386.37" width="4.27" height="18.01" rx="2.13" ry="2.13" transform="translate(-9.02 -273.78) rotate(17.25)"/><rect class="cls-2" x="139.8" y="388.12" width="4.78" height="18.01" rx="2.39" ry="2.39" transform="translate(-8.25 -275.37) rotate(17.25)"/><rect class="cls-2" x="145.56" y="389.87" width="4.58" height="18.01" rx="2.29" ry="2.29" transform="translate(-7.47 -276.97) rotate(17.25)"/><rect class="cls-2" x="151.47" y="391.68" width="4.38" height="18.01" rx="2.19" ry="2.19" transform="translate(-6.68 -278.61) rotate(17.25)"/><rect class="cls-3" x="139.76" y="378.41" width="22.28" height="2.32" transform="translate(-13.06 -278.75) rotate(17.25)"/><rect class="cls-5" x="198.8" y="366.04" width="5.92" height="44.89" rx="2.96" ry="2.96" transform="translate(-223.14 -188.26) rotate(-14.48)"/><rect class="cls-5" x="310.33" y="366.23" width="5.92" height="44.89" rx="2.96" ry="2.96" transform="translate(-62.7 -298.15) rotate(9.66)"/><rect class="cls-5" x="330.84" y="407.46" width="5.92" height="45.45" rx="2.96" ry="2.96" transform="translate(-136.7 -247.69) rotate(-0.58)"/><rect class="cls-6" x="327.84" y="449.24" width="12.08" height="7.97" transform="translate(-136.93 -247.69) rotate(-0.58)"/><rect class="cls-2" x="331.16" y="457.21" width="5.92" height="9.44" transform="translate(-137.02 -247.69) rotate(-0.58)"/><rect class="cls-7" x="330.06" y="465.6" width="7.88" height="1.05" transform="translate(-137.06 -247.69) rotate(-0.58)"/><rect class="cls-8" x="330.08" y="466.65" width="7.88" height="1.05" transform="translate(-137.07 -247.69) rotate(-0.58)"/><rect class="cls-9" x="330.09" y="467.69" width="7.88" height="1.05" transform="translate(-137.08 -247.69) rotate(-0.58)"/><rect class="cls-10" x="330.1" y="468.74" width="7.88" height="1.05" transform="translate(-137.09 -247.69) rotate(-0.58)"/><rect class="cls-11" x="330.11" y="469.79" width="7.88" height="1.05" transform="translate(-137.11 -247.69) rotate(-0.58)"/><path class="cls-9" d="M335.85,468.34c-4.81,0-8.65,4.79-8.61,8.79l17.4-.18C344.59,473,340.65,468.29,335.85,468.34Z" transform="translate(-132.39 -251.07)"/><rect class="cls-9" x="333.87" y="463.05" width="5.33" height="11.27" rx="2.66" ry="2.66" transform="translate(-137.09 -247.66) rotate(-0.58)"/><path class="cls-10" d="M342.7,466.54c-5.76.06-10.38,5.54-10.33,10.54l20.87-.21C353.19,471.87,348.46,466.48,342.7,466.54Z" transform="translate(-132.39 -251.07)"/><rect class="cls-12" x="331.12" y="457.21" width="5.92" height="0.79" transform="translate(-136.98 -247.69) rotate(-0.58)"/><rect class="cls-5" x="294.73" y="403.25" width="5.92" height="45.45" rx="2.96" ry="2.96" transform="translate(185.13 -344.41) rotate(37.13)"/><rect class="cls-6" x="277.62" y="440.26" width="12.08" height="7.97" transform="translate(193.31 -332.23) rotate(37.13)"/><rect class="cls-2" x="275.57" y="446.56" width="5.92" height="9.44" transform="translate(196.52 -327.71) rotate(37.13)"/><rect class="cls-7" x="271.93" y="454.01" width="7.88" height="1.05" transform="translate(197.94 -325.44) rotate(37.13)"/><rect class="cls-8" x="271.3" y="454.84" width="7.88" height="1.05" transform="translate(198.32 -324.89) rotate(37.13)"/><rect class="cls-9" x="270.67" y="455.68" width="7.88" height="1.05" transform="translate(198.69 -324.34) rotate(37.13)"/><rect class="cls-10" x="270.03" y="456.51" width="7.88" height="1.05" transform="translate(199.07 -323.79) rotate(37.13)"/><rect class="cls-11" x="269.4" y="457.35" width="7.88" height="1.05" transform="translate(199.44 -323.24) rotate(37.13)"/><path class="cls-9" d="M276,457.41c-3.83-2.9-9.78-1.5-12.19,1.68l13.87,10.51C280.07,466.41,279.8,460.31,276,457.41Z" transform="translate(-132.39 -251.07)"/><rect class="cls-9" x="273.64" y="452.46" width="5.33" height="11.27" rx="2.66" ry="2.66" transform="translate(200.18 -324.98) rotate(37.13)"/><path class="cls-8" d="M282.5,460.17c-4.6-3.48-11.6-2-14.62,2l16.64,12.6C287.53,470.81,287.09,463.65,282.5,460.17Z" transform="translate(-132.39 -251.07)"/><rect class="cls-12" x="278.18" y="447.44" width="5.92" height="0.79" transform="translate(194.97 -329.98) rotate(37.13)"/><rect class="cls-5" x="173.41" y="77.28" width="30.78" height="41.19" rx="15.39" ry="15.39"/><circle class="cls-13" cx="188.05" cy="85.75" r="29.88"/><path class="cls-14" d="M337.05,322.29V313a5.62,5.62,0,0,0-5.62-5.62H312.81a5.22,5.22,0,0,0-5.22,5.22v7.64L323.36,336Z" transform="translate(-132.39 -251.07)"/><rect class="cls-2" x="175.93" y="11.49" width="30.27" height="51.34" rx="15.13" ry="15.13"/><rect x="191.32" y="25.62" width="6.96" height="1.85"/><path d="M312.58,277a2.87,2.87,0,0,0,0,.69,7.15,7.15,0,0,0,7.21,7.14,7.08,7.08,0,0,0,4-1.08L316.84,277h-4.25Z" transform="translate(-132.39 -251.07)"/><path d="M327,277.69a2.83,2.83,0,0,0,0-.69h-3.46l3.13,3.06A7.69,7.69,0,0,0,327,277.69Z" transform="translate(-132.39 -251.07)"/><path d="M325.24,282.36L319.73,277h-1l6,6C324.92,282.8,325.08,282.55,325.24,282.36Z" transform="translate(-132.39 -251.07)"/><path class="cls-15" d="M326.58,280l-3.13-3h-3.73l5.51,5.44A7.58,7.58,0,0,0,326.58,280Z" transform="translate(-132.39 -251.07)"/><path class="cls-15" d="M316.84,277l6.87,6.72a6.77,6.77,0,0,0,1-.75l-6-6h-1.86Z" transform="translate(-132.39 -251.07)"/><path d="M327.06,277a2.87,2.87,0,0,0,0,.69,7.15,7.15,0,0,0,7.21,7.14,7.08,7.08,0,0,0,4-1.08L331.32,277h-4.25Z" transform="translate(-132.39 -251.07)"/><path d="M341.43,277.69a2.83,2.83,0,0,0,0-.69h-3.46l3.13,3.06A7.69,7.69,0,0,0,341.43,277.69Z" transform="translate(-132.39 -251.07)"/><path d="M339.72,282.36L334.2,277h-1l6,6C339.4,282.8,339.56,282.55,339.72,282.36Z" transform="translate(-132.39 -251.07)"/><path class="cls-15" d="M341.06,280l-3.13-3H334.2l5.51,5.44A7.58,7.58,0,0,0,341.06,280Z" transform="translate(-132.39 -251.07)"/><path class="cls-15" d="M331.32,277l6.87,6.72a6.77,6.77,0,0,0,1-.75l-6-6h-1.86Z" transform="translate(-132.39 -251.07)"/><rect x="173.57" y="25.62" width="6.96" height="1.85"/><rect class="cls-16" x="192.1" y="31.68" width="4.94" height="10.11" rx="2.47" ry="2.47"/><rect class="cls-8" x="184.31" y="22.38" width="8.99" height="2.49" rx="1.24" ry="1.24"/><rect class="cls-8" x="198.28" y="22.38" width="8.19" height="2.49" rx="1.24" ry="1.24"/><path class="cls-13" d="M214.67,0h0a0,0,0,0,1,0,0V0.76a20.42,20.42,0,0,1-20.42,20.42h0a0,0,0,0,1,0,0V20.42A20.42,20.42,0,0,1,214.67,0Z"/><path class="cls-17" d="M201.54,5.68h4.92a0,0,0,0,1,0,0v0A15.5,15.5,0,0,1,191,21.18H186a0,0,0,0,1,0,0v0A15.5,15.5,0,0,1,201.54,5.68Z"/><path class="cls-13" d="M190,8.15h7.86a0,0,0,0,1,0,0v0a13,13,0,0,1-13,13h-7.86a0,0,0,0,1,0,0v0a13,13,0,0,1,13-13Z"/><path class="cls-8" d="M325.6,298.39c5,0,9.13-.39,9.13-1.39H316.47C316.47,298,320.55,298.39,325.6,298.39Z" transform="translate(-132.39 -251.07)"/><rect class="cls-14" x="190.54" y="83.46" width="0.87" height="32.03"/><circle class="cls-18" cx="192.54" cy="87.97" r="0.54"/><circle class="cls-18" cx="192.54" cy="99.92" r="0.54"/><circle class="cls-18" cx="192.54" cy="111.88" r="0.54"/><path class="cls-4" d="M292.71,383h0a2.41,2.41,0,0,0-.51,3l6.64,11a1.71,1.71,0,0,0,2.62.47h0a2.41,2.41,0,0,0,.51-3l-6.64-11A1.71,1.71,0,0,0,292.71,383Z" transform="translate(-132.39 -251.07)"/><path class="cls-1" d="M292.68,315.1h0a11.14,11.14,0,0,1,11.14,11.14v53.23a2.74,2.74,0,0,1-2.74,2.74h-16.8a2.74,2.74,0,0,1-2.74-2.74V326.24A11.14,11.14,0,0,1,292.68,315.1Z" transform="matrix(0.99, 0.13, -0.13, 0.99, -83.3, -286.97)"/><path class="cls-2" d="M287.07,377.54h0a11.14,11.14,0,0,1,11.14,11.14v14.56a0,0,0,0,1,0,0H275.93a0,0,0,0,1,0,0V388.68A11.14,11.14,0,0,1,287.07,377.54Z" transform="translate(387.14 564.48) rotate(-172.34)"/><rect class="cls-1" x="276.32" y="372.16" width="25.75" height="5.98" transform="translate(-79.8 -286.27) rotate(7.66)"/><rect class="cls-2" x="274.93" y="388.16" width="4.27" height="18.01" rx="2.13" ry="2.13" transform="translate(-76.98 -284.46) rotate(7.66)"/><rect class="cls-2" x="280.52" y="388.95" width="4.78" height="18.01" rx="2.39" ry="2.39" transform="translate(-76.82 -285.23) rotate(7.66)"/><rect class="cls-2" x="286.49" y="389.73" width="4.58" height="18.01" rx="2.29" ry="2.29" transform="translate(-76.66 -286.01) rotate(7.66)"/><rect class="cls-2" x="292.62" y="390.55" width="4.38" height="18.01" rx="2.19" ry="2.19" transform="translate(-76.5 -286.8) rotate(7.66)"/><rect class="cls-3" x="277.43" y="378.03" width="22.28" height="2.32" transform="translate(-79.27 -286.15) rotate(7.66)"/><rect class="cls-5" x="326.97" y="366.23" width="5.92" height="44.89" rx="2.96" ry="2.96" transform="translate(-199.14 -182.66) rotate(-10.76)"/></svg>